<svg width="800" height="800" viewBox="0 0 800 800" fill="none" xmlns="http://www.w3.org/2000/svg">
<g clip-path="url(#clip0_424_42)">
<path d="M709.081 520.394H407.636C360.982 520.394 323.029 482.439 323.029 435.787V84.6094C323.028 37.9547 360.984 0 407.636 0H709.079C755.732 0 793.689 37.9547 793.689 84.6094V435.786C793.69 482.439 755.736 520.394 709.081 520.394ZM407.636 44.6766C385.618 44.6766 367.706 62.5891 367.706 84.6078V435.784C367.706 457.802 385.618 475.714 407.636 475.714H709.079C731.096 475.714 749.011 457.802 749.011 435.784V84.6094C749.011 62.5906 731.095 44.6781 709.079 44.6781L407.636 44.6766Z" fill="#FFB5C5"/>
<path d="M588.069 642.534H528.652C496.77 642.534 470.828 616.595 470.828 584.711V510.098C470.828 497.761 480.831 487.759 493.167 487.759C505.503 487.759 515.506 497.761 515.506 510.098V584.711C515.506 591.959 521.403 597.858 528.652 597.858H588.069C595.317 597.858 601.216 591.961 601.216 584.711V565.147C601.216 552.809 611.219 542.808 623.555 542.808C635.891 542.808 645.894 552.809 645.894 565.147V584.711C645.891 616.595 619.95 642.534 588.069 642.534Z" fill="#FFB5C5"/>
<path d="M458.397 185.933H345.397C333.061 185.933 323.058 175.931 323.058 163.594C323.058 151.256 333.061 141.255 345.397 141.255H458.397C470.733 141.255 480.736 151.256 480.736 163.594C480.736 175.931 470.734 185.933 458.397 185.933Z" fill="#FFB5C5"/>
<path d="M458.397 304.123H345.397C333.061 304.123 323.058 294.122 323.058 281.784C323.058 269.447 333.061 259.445 345.397 259.445H458.397C470.733 259.445 480.736 269.447 480.736 281.784C480.736 294.122 470.734 304.123 458.397 304.123Z" fill="#FFB5C5"/>
<path d="M501.862 422.311H345.397C333.061 422.311 323.058 412.309 323.058 399.972C323.058 387.634 333.061 377.633 345.397 377.633H501.864C514.2 377.633 524.203 387.634 524.203 399.972C524.201 412.309 514.2 422.311 501.862 422.311Z" fill="#FFB5C5"/>
<path d="M639.355 422.605H477.365C446.185 422.605 420.819 397.239 420.819 366.059V163.595C420.819 151.258 430.822 141.256 443.158 141.256H673.563C685.899 141.256 695.902 151.258 695.902 163.595V366.061C695.899 397.237 670.533 422.605 639.355 422.605ZM465.496 185.933V366.059C465.496 372.605 470.821 377.928 477.365 377.928H639.355C645.901 377.928 651.224 372.605 651.224 366.059V185.933H465.496Z" fill="#FFB5C5"/>
<path d="M477.53 800H230.186C172.066 800 124.783 752.717 124.783 694.594V676.998C124.783 664.661 134.786 654.659 147.122 654.659C159.458 654.659 169.461 664.661 169.461 676.998V694.594C169.461 728.078 196.704 755.323 230.188 755.323H477.532C511.018 755.323 538.261 728.081 538.261 694.594V627.327C538.261 614.989 548.264 604.987 560.6 604.987C572.936 604.987 582.939 614.989 582.939 627.327V694.594C582.933 752.714 535.65 800 477.53 800Z" fill="#FFB5C5"/>
<path d="M147.122 594.347C134.786 594.347 124.783 584.345 124.783 572.008V338.912C124.783 326.575 134.786 316.573 147.122 316.573C159.458 316.573 169.461 326.575 169.461 338.912V572.008C169.46 584.345 159.46 594.347 147.122 594.347Z" fill="#FFB5C5"/>
<path d="M147.045 490.261C141.887 490.261 136.861 488.794 132.508 486.014C118.425 477.03 46.9469 430.155 23.1437 389.912C11.5031 370.237 6.3125 351.261 6.3125 328.387C6.3125 275.93 43.6516 237.856 95.0922 237.856C119.072 237.856 135.784 245.97 147.067 255.287C158.364 245.975 175.097 237.856 199.102 237.856C250.573 237.856 287.933 275.93 287.933 328.387C287.933 351.291 282.75 370.267 271.128 389.911C247.159 430.43 175.623 477.106 161.53 486.05C157.184 488.808 152.178 490.261 147.045 490.261ZM95.0906 282.534C74.7469 282.534 50.9875 294.544 50.9875 328.387C50.9875 343.195 54.0609 354.43 61.5937 367.164C75.3859 390.478 119.225 423.455 147.069 442.142C174.922 423.534 218.781 390.644 232.672 367.164C240.186 354.461 243.252 343.227 243.252 328.387C243.252 294.542 219.467 282.534 199.097 282.534C184.327 282.534 173.984 287.859 168.353 298.361C164.125 306.228 155.964 311.105 147.047 311.105C138.098 311.105 129.925 306.208 125.716 298.319C120.123 287.85 109.816 282.534 95.0906 282.534Z" fill="#FFB5C5"/>
</g>
<defs>
<clipPath id="clip0_424_42">
<rect width="800" height="800" fill="white"/>
</clipPath>
</defs>
</svg>
