<svg width="800" height="800" viewBox="0 0 800 800" fill="none" xmlns="http://www.w3.org/2000/svg">
<path d="M400 533.333C455.23 533.333 500 488.563 500 433.333C500 378.103 455.23 333.333 400 333.333C344.77 333.333 300 378.103 300 433.333C300 488.563 344.77 533.333 400 533.333Z" stroke="#FFB5C5" stroke-width="50" stroke-linecap="round" stroke-linejoin="round"/>
<path d="M100 560V306.667C100 269.33 100 250.661 107.266 236.401C113.658 223.856 123.856 213.658 136.401 207.266C150.661 200 169.33 200 206.667 200H241.821C245.919 200 247.968 200 249.859 199.783C259.722 198.654 268.568 193.186 273.99 184.87C275.029 183.276 275.945 181.443 277.778 177.778C281.443 170.447 283.276 166.782 285.354 163.594C296.197 146.961 313.889 136.026 333.617 133.766C337.397 133.333 341.493 133.333 349.69 133.333H450.31C458.507 133.333 462.603 133.333 466.383 133.766C486.11 136.026 503.803 146.961 514.647 163.594C516.723 166.782 518.557 170.448 522.223 177.778C524.053 181.443 524.97 183.276 526.01 184.87C531.433 193.186 540.277 198.654 550.14 199.783C552.033 200 554.08 200 558.18 200H593.333C630.67 200 649.34 200 663.6 207.266C676.143 213.658 686.343 223.856 692.733 236.401C700 250.661 700 269.33 700 306.667V560C700 597.337 700 616.007 692.733 630.267C686.343 642.81 676.143 653.01 663.6 659.4C649.34 666.667 630.67 666.667 593.333 666.667H206.667C169.33 666.667 150.661 666.667 136.401 659.4C123.856 653.01 113.658 642.81 107.266 630.267C100 616.007 100 597.337 100 560Z" stroke="#FFB5C5" stroke-width="50" stroke-linecap="round" stroke-linejoin="round"/>
</svg>
