<svg width="800" height="800" viewBox="0 0 800 800" fill="none" xmlns="http://www.w3.org/2000/svg">
<path d="M689.667 390C685.667 381.333 594.333 175 400 175C381.393 174.981 362.837 176.992 344.667 181C338.68 182.853 333.61 186.885 330.456 192.3C327.303 197.714 326.297 204.114 327.639 210.235C328.98 216.355 332.571 221.748 337.7 225.347C342.83 228.946 349.12 230.487 355.333 229.667C370.023 226.596 384.99 225.033 400 225C539.333 225 619.333 361.667 639 400C627.01 423.427 612.953 445.737 597 466.667C594.133 470.357 592.36 474.777 591.88 479.423C591.397 484.07 592.227 488.757 594.273 492.957C596.323 497.157 599.504 500.697 603.464 503.18C607.42 505.663 611.993 506.987 616.667 507C620.463 506.987 624.207 506.11 627.617 504.437C631.024 502.76 634.003 500.333 636.333 497.333C657.327 470.673 675.22 441.707 689.667 411C691.127 407.693 691.88 404.117 691.88 400.5C691.88 396.883 691.127 393.307 689.667 390Z" fill="#FFAEBF"/>
<path d="M217.666 182.334C212.927 177.918 206.659 175.514 200.182 175.628C193.705 175.743 187.526 178.366 182.945 182.947C178.365 187.527 175.741 193.707 175.627 200.184C175.513 206.66 177.917 212.928 182.333 217.668L213 248.334C169.576 288.281 134.657 336.577 110.333 390.333C109.022 393.447 108.347 396.79 108.347 400.167C108.347 403.547 109.022 406.89 110.333 410C114.333 418.667 205.666 625 400 625C451.977 625.257 502.877 610.187 546.333 581.667L582.333 617.667C587.02 622.35 593.373 624.98 600 624.98C606.623 624.98 612.98 622.35 617.667 617.667C622.347 612.98 624.977 606.627 624.977 600C624.977 593.377 622.347 587.023 617.667 582.333L217.666 182.334ZM345.333 382.333L419 456.333C408.677 459.757 397.617 460.323 386.997 457.977C376.377 455.63 366.587 450.457 358.667 443C350.6 435.047 345.037 424.907 342.67 413.83C340.3 402.753 341.227 391.223 345.333 380.667V382.333ZM400 575C260.333 575 180.666 438 161 400C182.756 356.21 212.356 316.782 248.333 283.668L308 343.333C295.194 364.03 289.754 388.447 292.563 412.623C295.372 436.8 306.264 459.317 323.474 476.527C340.683 493.737 363.203 504.63 387.377 507.437C411.553 510.247 435.97 504.807 456.667 492L510.333 545.667C476.84 565.133 438.74 575.263 400 575Z" fill="#FFAEBF"/>
</svg>
