<svg width="800" height="800" viewBox="0 0 800 800" fill="none" xmlns="http://www.w3.org/2000/svg">
<path d="M766.667 400C766.667 602.503 602.503 766.667 400 766.667C197.496 766.667 33.3333 602.503 33.3333 400C33.3333 197.496 197.496 33.3335 400 33.3335C602.503 33.3335 766.667 197.496 766.667 400ZM100.228 400C100.228 565.56 234.44 699.773 400 699.773C565.56 699.773 699.773 565.56 699.773 400C699.773 234.44 565.56 100.228 400 100.228C234.44 100.228 100.228 234.44 100.228 400Z" fill="#FFB5C5"/>
<path d="M400 166.667C381.59 166.667 366.667 181.59 366.667 200V415.556C366.667 415.556 366.667 424.246 370.89 430.783C373.717 436.326 378.123 441.143 383.913 444.487L537.907 533.396C553.85 542.6 574.237 537.137 583.44 521.193C592.643 505.25 587.183 484.863 571.24 475.66L433.333 396.04V200C433.333 181.591 418.41 166.667 400 166.667Z" fill="#FFB5C5"/>
</svg>
