<svg width="800" height="800" viewBox="0 0 800 800" fill="none" xmlns="http://www.w3.org/2000/svg">
<path d="M266.667 350H533.333" stroke="#BFBFBF" stroke-width="50" stroke-linecap="round"/>
<path d="M266.667 466.667H450" stroke="#BFBFBF" stroke-width="50" stroke-linecap="round"/>
<path d="M566.666 111.261C517.636 82.8991 460.713 66.6667 400 66.6667C215.905 66.6667 66.6665 215.905 66.6665 400C66.6665 453.323 79.1872 503.72 101.448 548.417C107.364 560.293 109.334 573.87 105.904 586.687L86.0502 660.89C77.4315 693.1 106.9 722.567 139.111 713.95L213.313 694.097C226.131 690.667 239.707 692.637 251.584 698.55C296.279 720.813 346.676 733.333 400 733.333C584.093 733.333 733.333 584.093 733.333 400C733.333 339.287 717.1 282.362 688.74 233.333" stroke="#BFBFBF" stroke-width="50" stroke-linecap="round"/>
<path d="M266.667 350H533.333" stroke="#BFBFBF" stroke-width="50" stroke-linecap="round"/>
<path d="M266.667 466.667H450" stroke="#BFBFBF" stroke-width="50" stroke-linecap="round"/>
<path d="M566.666 111.261C517.636 82.8991 460.713 66.6667 400 66.6667C215.905 66.6667 66.6665 215.905 66.6665 400C66.6665 453.323 79.1872 503.72 101.448 548.417C107.364 560.293 109.334 573.87 105.904 586.687L86.0502 660.89C77.4315 693.1 106.9 722.567 139.111 713.95L213.313 694.097C226.131 690.667 239.707 692.637 251.584 698.55C296.279 720.813 346.676 733.333 400 733.333C584.093 733.333 733.333 584.093 733.333 400C733.333 339.287 717.1 282.362 688.74 233.333" stroke="#BFBFBF" stroke-width="50" stroke-linecap="round"/>
</svg>
