<svg width="800" height="800" viewBox="0 0 800 800" fill="none" xmlns="http://www.w3.org/2000/svg">
<path fill-rule="evenodd" clip-rule="evenodd" d="M52.8144 723.374H348.574L202.222 577.022L61.1518 718.093C58.7171 720.528 55.8566 722.283 52.8144 723.374ZM44.4444 671.945V190.04H577.778V509.726L473.682 405.629C465.375 397.322 451.057 397.075 442.379 405.754C441.794 406.338 441.249 406.951 440.743 407.588C440.585 407.736 440.429 407.888 440.275 408.042L268.186 580.131L218.61 530.555C213.733 525.679 206.912 523.527 200.346 524.238C194.985 524.547 189.669 526.722 185.562 530.829L44.4444 671.945ZM411.427 723.374H577.778V572.312L577.643 572.446L458.184 452.986L299.612 611.559L411.427 723.374ZM622.222 706.971L664.916 712.972C689.426 716.417 712.017 699.361 715.457 674.887L789.597 147.346C793.042 122.836 775.986 100.245 751.512 96.8051L223.972 22.6643C199.462 19.2197 176.87 36.2761 173.431 60.7496L161.506 145.596H44.7483C19.9973 145.596 0 165.631 0 190.345V723.07C0 747.821 20.0343 767.818 44.7483 767.818H577.474C602.225 767.818 622.222 747.784 622.222 723.07V706.971ZM622.222 662.09L671.403 669.002L745.628 140.86L217.486 66.6341L206.388 145.596H577.474C602.188 145.596 622.222 165.594 622.222 190.345V662.09Z" fill="#BFBFBF"/>
</svg>
