<svg width="800" height="800" viewBox="0 0 800 800" fill="none" xmlns="http://www.w3.org/2000/svg">
<path fill-rule="evenodd" clip-rule="evenodd" d="M377.01 59.1952C389.887 46.9349 410.113 46.9349 422.99 59.1952L689.657 313.164L772.99 392.53C786.32 405.223 786.833 426.323 774.137 439.657C761.443 452.987 740.343 453.5 727.01 440.803L700 415.08V666.667C700 703.487 670.153 733.333 633.333 733.333H466.667H333.333H166.667C129.848 733.333 99.9999 703.487 99.9999 666.667V415.08L72.9886 440.803C59.6572 453.5 38.5582 452.987 25.862 439.657C13.1658 426.323 13.6804 405.223 27.0114 392.53L110.345 313.164L377.01 59.1952ZM166.667 351.587V666.667H300V500C300 444.77 344.77 400 400 400C455.23 400 500 444.77 500 500V666.667H633.333V351.587L400 129.365L166.667 351.587ZM433.333 666.667V500C433.333 481.59 418.41 466.667 400 466.667C381.59 466.667 366.667 481.59 366.667 500V666.667H433.333Z" fill="#BFBFBF"/>
</svg>
