<svg width="800" height="800" viewBox="0 0 800 800" fill="none" xmlns="http://www.w3.org/2000/svg">
<path d="M100 300H700M233.333 100V166.667M566.667 100V166.667M399.92 423.73C376.593 397.76 337.697 390.773 308.471 414.557C279.246 438.337 275.131 478.1 298.082 506.227C311.04 522.107 341.827 549.943 366.18 571.177C377.73 581.247 383.503 586.283 390.49 588.343C396.447 590.1 403.393 590.1 409.35 588.343C416.337 586.283 422.11 581.247 433.66 571.177C458.013 549.943 488.8 522.107 501.757 506.227C524.71 478.1 521.097 438.087 491.37 414.557C461.64 391.023 423.247 397.76 399.92 423.73ZM206.667 700H593.333C630.67 700 649.34 700 663.6 692.733C676.143 686.343 686.343 676.143 692.733 663.6C700 649.34 700 630.67 700 593.333V273.333C700 235.996 700 217.328 692.733 203.067C686.343 190.523 676.143 180.324 663.6 173.933C649.34 166.667 630.67 166.667 593.333 166.667H206.667C169.33 166.667 150.661 166.667 136.401 173.933C123.856 180.324 113.658 190.523 107.266 203.067C100 217.328 100 235.996 100 273.333V593.333C100 630.67 100 649.34 107.266 663.6C113.658 676.143 123.856 686.343 136.401 692.733C150.661 700 169.33 700 206.667 700Z" stroke="#FFB5C5" stroke-width="50" stroke-linecap="round" stroke-linejoin="round"/>
</svg>
