<svg width="800" height="800" viewBox="0 0 800 800" fill="none" xmlns="http://www.w3.org/2000/svg">
<path d="M400 625C205.667 625 114.333 418.667 110.333 410C109.013 406.83 108.333 403.433 108.333 400C108.333 396.567 109.013 393.17 110.333 390C114.333 381.333 205.667 175 400 175C594.333 175 685.667 381.333 689.667 390C690.987 393.17 691.667 396.567 691.667 400C691.667 403.433 690.987 406.83 689.667 410C685.667 418.667 594.333 625 400 625ZM161 400C180.667 438.333 261 575 400 575C539 575 619.333 438.333 639 400C619.333 361.667 539 225 400 225C261 225 180.667 361.667 161 400Z" fill="#FFAEBF"/>
<path d="M400 508.333C378.574 508.333 357.63 501.98 339.814 490.077C321.998 478.173 308.113 461.253 299.913 441.457C291.714 421.663 289.569 399.88 293.749 378.867C297.929 357.85 308.246 338.547 323.397 323.397C338.547 308.246 357.85 297.928 378.867 293.748C399.88 289.568 421.664 291.714 441.457 299.913C461.254 308.113 478.174 321.998 490.077 339.813C501.98 357.63 508.334 378.573 508.334 400C508.247 428.703 496.804 456.21 476.507 476.507C456.21 496.803 428.704 508.247 400 508.333ZM400 341.667C388.464 341.667 377.184 345.087 367.594 351.497C358 357.907 350.524 367.017 346.107 377.677C341.694 388.337 340.537 400.063 342.787 411.38C345.04 422.697 350.594 433.09 358.754 441.247C366.91 449.407 377.304 454.963 388.62 457.213C399.937 459.463 411.664 458.307 422.324 453.893C432.984 449.477 442.094 442 448.504 432.407C454.914 422.817 458.334 411.537 458.334 400C458.247 384.557 452.074 369.77 441.15 358.85C430.23 347.927 415.444 341.753 400 341.667Z" fill="#FFAEBF"/>
</svg>
