<svg width="800" height="800" viewBox="0 0 800 800" fill="none" xmlns="http://www.w3.org/2000/svg">
<path d="M133.333 633.333V206.667C133.333 169.33 133.333 150.661 140.6 136.401C146.991 123.856 157.19 113.658 169.734 107.266C183.995 100 202.663 100 240 100H560C597.337 100 616.007 100 630.267 107.266C642.81 113.658 653.01 123.856 659.4 136.401C666.667 150.661 666.667 169.33 666.667 206.667V566.667H200C163.181 566.667 133.333 596.513 133.333 633.333ZM133.333 633.333C133.333 670.153 163.181 700 200 700H666.667M300 233.333H500M300 366.667H500M633.333 566.667V700" stroke="#FFAEBF" stroke-width="50" stroke-linecap="round" stroke-linejoin="round"/>
</svg>
