<svg width="800" height="800" viewBox="0 0 800 800" fill="none" xmlns="http://www.w3.org/2000/svg">
<path d="M600 399.997H573.287C545.63 399.997 531.803 399.997 520.34 406.487C508.88 412.977 501.763 424.833 487.537 448.547L486.507 450.263C473.253 472.353 466.623 483.4 456.983 483.217C447.34 483.037 441.13 471.75 428.717 449.177L372.473 346.917C360.897 325.869 355.11 315.345 345.863 314.846C336.62 314.346 329.733 324.186 315.958 343.863L306.524 357.343C291.894 378.243 284.578 388.693 273.724 394.343C262.871 399.997 250.114 399.997 224.601 399.997H200" stroke="#FE9191" stroke-width="50" stroke-linecap="round"/>
<path d="M400 183.353L381.987 200.69C386.7 205.587 393.203 208.353 400 208.353C406.796 208.353 413.3 205.587 418.013 200.69L400 183.353ZM88.5552 446.547C95.8525 458.267 111.27 461.853 122.991 454.557C134.712 447.26 138.298 431.84 131.001 420.12L88.5552 446.547ZM217.656 525.727C207.881 515.977 192.052 515.993 182.301 525.77C172.549 535.543 172.569 551.373 182.344 561.123L217.656 525.727ZM91.6665 304.569C91.6665 211.14 133.574 153.169 185.973 133.237C238.515 113.251 311.71 127.673 381.987 200.69L418.013 166.017C338.296 83.1943 244.823 57.3563 168.197 86.504C91.4285 115.705 41.6665 196.262 41.6665 304.569H91.6665ZM516.753 649.997C566.496 610.78 626.123 558.203 673.536 499.46C720.42 441.373 758.333 373.63 758.333 304.568H708.333C708.333 356.267 679.256 412.763 634.63 468.057C590.533 522.69 534.13 572.627 485.8 610.73L516.753 649.997ZM758.333 304.568C758.333 196.261 708.57 115.705 631.803 86.5036C555.176 57.3566 461.703 83.1943 381.987 166.017L418.013 200.69C488.29 127.673 561.483 113.251 614.026 133.237C666.426 153.169 708.333 211.139 708.333 304.568H758.333ZM283.247 649.993C325.724 683.48 355.003 707.863 400 707.863V657.863C375.643 657.863 360.523 647.247 314.202 610.73L283.247 649.993ZM485.8 610.73C439.477 647.247 424.356 657.863 400 657.863V707.863C444.996 707.863 474.276 683.48 516.753 649.997L485.8 610.73ZM131.001 420.12C106.134 380.18 91.6665 341.04 91.6665 304.569H41.6665C41.6665 353.9 61.0178 402.317 88.5552 446.547L131.001 420.12ZM314.202 610.73C283.636 586.633 249.697 557.69 217.656 525.727L182.344 561.123C216.116 594.817 251.606 625.05 283.247 649.993L314.202 610.73Z" fill="#FE9191"/>
</svg>
