<svg width="25" height="25" viewBox="0 0 25 25" fill="none" xmlns="http://www.w3.org/2000/svg">
<path d="M4.16602 19.7917V6.45833C4.16602 5.29156 4.16602 4.70817 4.39309 4.26252C4.59282 3.87051 4.91153 3.5518 5.30354 3.35207C5.74918 3.125 6.33258 3.125 7.49935 3.125H17.4993C18.6661 3.125 19.2496 3.125 19.6952 3.35207C20.0872 3.5518 20.4059 3.87051 20.6056 4.26252C20.8327 4.70817 20.8327 5.29156 20.8327 6.45833V17.7083H6.24935C5.09876 17.7083 4.16602 18.641 4.16602 19.7917ZM4.16602 19.7917C4.16602 20.9423 5.09876 21.875 6.24935 21.875H20.8327M9.37435 7.29167H15.6243M9.37435 11.4583H15.6243M19.791 17.7083V21.875" stroke="#FFAEBF" stroke-width="2" stroke-linecap="round" stroke-linejoin="round"/>
</svg>
