<svg width="800" height="800" viewBox="0 0 800 800" fill="none" xmlns="http://www.w3.org/2000/svg">
<path d="M100 300H700M566.667 433.38L233.333 433.333M344.443 566.683L233.333 566.667M233.333 100V166.667M566.667 100V166.667M206.667 700H593.333C630.67 700 649.34 700 663.6 692.733C676.143 686.343 686.343 676.143 692.733 663.6C700 649.34 700 630.67 700 593.333V273.333C700 235.996 700 217.328 692.733 203.067C686.343 190.523 676.143 180.324 663.6 173.933C649.34 166.667 630.67 166.667 593.333 166.667H206.667C169.33 166.667 150.661 166.667 136.401 173.933C123.856 180.324 113.658 190.523 107.266 203.067C100 217.328 100 235.996 100 273.333V593.333C100 630.67 100 649.34 107.266 663.6C113.658 676.143 123.856 686.343 136.401 692.733C150.661 700 169.33 700 206.667 700Z" stroke="#7C7C7C" stroke-width="50" stroke-linecap="round" stroke-linejoin="round"/>
</svg>
