<svg width="800" height="800" viewBox="0 0 800 800" fill="none" xmlns="http://www.w3.org/2000/svg">
<g clip-path="url(#clip0_424_322)">
<path d="M518.338 258.988C504.6 245.238 482.316 245.263 468.566 258.988L447.361 280.217L519.81 352.653L541.025 331.45C554.75 317.699 554.75 295.402 541.025 281.65L518.338 258.988Z" fill="#FEB491"/>
<path d="M400 0C179.437 0 0 179.423 0 400C0 620.55 179.437 800 400 800C620.575 800 800 620.55 800 400C800 179.423 620.575 0 400 0ZM400 728.205C218.753 728.205 71.7953 581.247 71.7953 400C71.7953 218.753 218.753 71.7812 400 71.7812C581.247 71.7812 728.205 218.753 728.205 399.998C728.205 581.247 581.247 728.205 400 728.205Z" fill="#FEB491"/>
<path d="M248.693 478.882V551.32H321.142L486.487 385.971L414.051 313.537L248.693 478.882Z" fill="#FEB491"/>
</g>
<defs>
<clipPath id="clip0_424_322">
<rect width="800" height="800" fill="white"/>
</clipPath>
</defs>
</svg>
