<svg width="800" height="800" viewBox="0 0 800 800" fill="none" xmlns="http://www.w3.org/2000/svg">
<path d="M400 566.667V366.667" stroke="#DFBDF0" stroke-width="50" stroke-linecap="round"/>
<path d="M399.999 233.333C418.409 233.333 433.333 248.257 433.333 266.667C433.333 285.076 418.409 300 399.999 300C381.59 300 366.666 285.076 366.666 266.667C366.666 248.257 381.59 233.333 399.999 233.333Z" fill="#DFBDF0"/>
<path d="M233.333 111.261C282.362 82.8993 339.286 66.667 399.999 66.667C584.093 66.667 733.333 215.905 733.333 400C733.333 584.094 584.093 733.334 399.999 733.334C215.904 733.334 66.666 584.094 66.666 400C66.666 339.287 82.8984 282.363 111.26 233.334" stroke="#DFBDF0" stroke-width="50" stroke-linecap="round"/>
</svg>
