<svg width="800" height="800" viewBox="0 0 800 800" fill="none" xmlns="http://www.w3.org/2000/svg">
<path d="M785.883 522.473C783.458 519.625 732.205 460.219 658.653 431.925C690.597 360.095 684.927 282.186 684.584 277.908L682.844 256.208L661.144 254.469C657.414 254.17 579.164 248.403 507.147 280.406C478.944 207.028 419.844 155.947 416.577 153.166L400.003 139.055L383.43 153.166C380.163 155.947 321.061 207.028 292.859 280.406C220.842 248.405 142.594 254.172 138.863 254.469L117.163 256.208L115.422 277.908C115.08 282.186 109.409 360.097 141.353 431.925C67.7984 460.219 16.5453 519.625 14.1203 522.473L0 539.048L14.1125 555.625C17.775 559.925 105.081 660.947 216.788 660.947C298.864 660.947 367.767 606.409 399.998 575.772C432.23 606.409 501.133 660.947 583.209 660.947C694.917 660.947 782.22 559.927 785.884 555.625L800 539.048L785.883 522.473ZM331.314 566.531C304.131 586.277 262.194 609.816 216.789 609.816C153.105 609.816 96.1 564.381 69.2672 539.05C88.9422 520.473 124.823 491.128 167.706 476.77C172.739 483.339 178.237 489.675 184.255 495.695C228.82 540.259 290.614 556.586 337.033 562.278C335.175 563.692 333.27 565.112 331.314 566.531ZM220.411 459.542C175.378 414.509 167.197 342.073 166.136 305.188C193.183 305.963 239.306 310.586 279.784 330.756C278.698 338.959 278.106 347.328 278.106 355.842C278.106 418.897 310.292 474.17 339.103 511.02C301.466 505.97 253.655 492.784 220.411 459.542ZM399.966 503.397C392.123 495.109 382.345 483.895 372.52 470.366C352.775 443.181 329.236 401.245 329.236 355.841C329.236 292.122 374.712 235.097 400.037 208.283C407.878 216.57 417.658 227.784 427.483 241.316C447.228 268.498 470.767 310.436 470.767 355.841C470.767 419.558 425.291 476.583 399.966 503.397ZM521.895 355.841C521.895 347.328 521.302 338.959 520.217 330.756C560.73 310.567 606.897 305.953 633.923 305.183C632.941 342.002 624.858 414.275 579.591 459.541C546.522 492.608 498.684 505.805 460.992 510.903C489.778 474.052 521.895 418.828 521.895 355.841ZM697.736 566.531C670.553 586.277 628.616 609.816 583.211 609.816C536.445 609.816 493.286 585.317 463.028 562.269C509.442 556.567 571.202 540.236 615.742 495.694C621.763 489.673 627.259 483.337 632.291 476.769C675.208 491.139 711.114 520.516 730.769 539.083C722.48 546.923 711.266 556.705 697.736 566.531Z" fill="#FFAEBF"/>
</svg>
