<svg width="800" height="800" viewBox="0 0 800 800" fill="none" xmlns="http://www.w3.org/2000/svg">
<path d="M233.333 366.667C270.152 366.667 299.999 336.82 299.999 300C299.999 263.181 270.152 233.333 233.333 233.333C196.514 233.333 166.666 263.181 166.666 300C166.666 336.82 196.514 366.667 233.333 366.667Z" stroke="#7C7C7C" stroke-width="50" stroke-linecap="round" stroke-linejoin="round"/>
<path d="M185.352 700C371.017 370 525.35 311.997 700.017 526.33" stroke="#7C7C7C" stroke-width="50" stroke-linecap="round" stroke-linejoin="round"/>
<path d="M442.667 100H166.667C131.305 100 97.3913 114.045 72.3863 139.05C47.3813 164.055 33.334 197.971 33.334 233.333V566.667C33.334 602.03 47.3813 635.94 72.3863 660.947C97.3913 685.95 131.305 700 166.667 700H566.667C602.031 700 635.944 685.95 660.947 660.947C685.954 635.94 700.001 602.03 700.001 566.667V366.667" stroke="#7C7C7C" stroke-width="50" stroke-linecap="round" stroke-linejoin="round"/>
<path d="M625 27.665V294.332" stroke="#7C7C7C" stroke-width="50" stroke-linecap="round" stroke-linejoin="round"/>
<path d="M731.693 187.667L625.026 294.334L518.359 187.667" stroke="#7C7C7C" stroke-width="50" stroke-linecap="round" stroke-linejoin="round"/>
</svg>
