<svg width="800" height="800" viewBox="0 0 800 800" fill="none" xmlns="http://www.w3.org/2000/svg">
<path d="M343.364 456.497L670.067 129.914M352.651 471.183L426.731 619.347C444.634 655.15 453.584 673.053 464.861 677.853C474.647 682.02 485.834 681.263 494.974 675.823C505.504 669.553 511.971 650.61 524.907 612.727L664.877 202.811C676.151 169.803 681.784 153.299 677.927 142.381C674.571 132.883 667.101 125.411 657.604 122.056C646.684 118.198 630.181 123.834 597.171 135.105L187.255 275.077C149.372 288.012 130.43 294.48 124.16 305.011C118.718 314.149 117.964 325.336 122.13 335.12C126.931 346.397 144.833 355.35 180.638 373.25L328.8 447.333C334.701 450.283 337.651 451.757 340.204 453.727C342.474 455.477 344.507 457.51 346.254 459.777C348.227 462.333 349.701 465.283 352.651 471.183Z" stroke="white" stroke-width="66.6667" stroke-linecap="round" stroke-linejoin="round"/>
</svg>
