<svg width="800" height="800" viewBox="0 0 800 800" fill="none" xmlns="http://www.w3.org/2000/svg">
<path d="M400 500C455.228 500 500 455.228 500 400C500 344.772 455.228 300 400 300C344.772 300 300 344.772 300 400C300 455.228 344.772 500 400 500Z" stroke="white" stroke-width="50"/>
<path d="M458.847 71.7417C446.594 66.667 431.064 66.667 400.001 66.667C368.937 66.667 353.407 66.667 341.154 71.7417C324.82 78.508 311.841 91.4863 305.075 107.821C301.986 115.278 300.777 123.95 300.304 136.6C299.609 155.19 290.076 172.397 273.965 181.698C257.855 190.999 238.187 190.652 221.74 181.959C210.549 176.044 202.434 172.754 194.432 171.701C176.902 169.393 159.173 174.143 145.146 184.907C134.625 192.98 126.86 206.43 111.328 233.331C95.7969 260.233 88.0312 273.683 86.3002 286.831C83.9926 304.36 88.7429 322.089 99.5066 336.117C104.419 342.52 111.324 347.9 122.04 354.634C137.794 364.534 147.93 381.397 147.929 400C147.928 418.604 137.792 435.464 122.04 445.36C111.322 452.097 104.417 457.48 99.5032 463.884C88.7396 477.91 83.9892 495.637 86.2972 513.167C88.0279 526.314 95.7936 539.767 111.325 566.667C126.857 593.567 134.622 607.02 145.143 615.09C159.17 625.854 176.899 630.604 194.429 628.297C202.43 627.244 210.545 623.954 221.735 618.04C238.183 609.347 257.853 609 273.964 618.3C290.075 627.604 299.609 644.81 300.304 663.404C300.778 676.05 301.986 684.724 305.075 692.18C311.841 708.514 324.82 721.494 341.154 728.26C353.407 733.334 368.937 733.334 400.001 733.334C431.064 733.334 446.594 733.334 458.847 728.26C475.181 721.494 488.161 708.514 494.924 692.18C498.014 684.724 499.224 676.05 499.697 663.4C500.391 644.81 509.924 627.604 526.034 618.3C542.144 608.997 561.814 609.347 578.264 618.04C589.454 623.954 597.567 627.24 605.567 628.294C623.097 630.604 640.827 625.854 654.854 615.09C665.374 607.017 673.141 593.567 688.671 566.664C704.204 539.764 711.971 526.314 713.701 513.167C716.007 495.637 711.257 477.907 700.494 463.88C695.581 457.477 688.674 452.094 677.957 445.36C662.207 435.464 652.071 418.6 652.071 399.997C652.071 381.394 662.207 364.537 677.957 354.64C688.677 347.904 695.584 342.524 700.497 336.117C711.261 322.091 716.011 304.363 713.704 286.833C711.974 273.685 704.207 260.235 688.674 233.334C673.144 206.433 665.377 192.982 654.857 184.909C640.831 174.146 623.101 169.395 605.571 171.703C597.571 172.757 589.457 176.046 578.264 181.96C561.817 190.653 542.147 191.001 526.037 181.699C509.924 172.397 500.391 155.189 499.697 136.598C499.224 123.95 498.014 115.278 494.924 107.821C488.161 91.4863 475.181 78.508 458.847 71.7417Z" stroke="white" stroke-width="50"/>
</svg>
