<svg width="800" height="800" viewBox="0 0 800 800" fill="none" xmlns="http://www.w3.org/2000/svg">
<g clip-path="url(#clip0_424_227)">
<path d="M400 0C179.077 0 0 179.077 0 400C0 620.923 179.077 800 400 800C620.923 800 800 620.923 800 400C800 179.077 620.923 0 400 0ZM400 737.5C213.598 737.5 62.5 586.402 62.5 400C62.5 213.598 213.598 62.5 400 62.5C586.402 62.5 737.5 213.598 737.5 400C737.5 586.402 586.402 737.5 400 737.5Z" fill="white"/>
<path d="M511.133 599.952C520.044 599.977 600 540.845 600 533.302C600 525.758 510.522 469.386 502.783 469.386C495.044 469.386 469.067 500.539 462.061 504.005C455.03 507.472 411.28 506.227 362.525 457.472C313.745 408.741 297.095 352.614 297.095 343.8C297.095 334.986 337.769 307.766 338.892 301.369C340.016 294.972 285.278 200 276.392 200C267.506 200 200 282.031 200 288.867C200 295.703 206.177 383.642 317.53 494.97C428.883 606.298 502.222 599.903 511.133 599.952Z" fill="white"/>
</g>
<defs>
<clipPath id="clip0_424_227">
<rect width="800" height="800" fill="white"/>
</clipPath>
</defs>
</svg>
