<svg width="800" height="800" viewBox="0 0 800 800" fill="none" xmlns="http://www.w3.org/2000/svg">
<path d="M477.197 421.711C487.261 429.513 500.015 434.172 513.708 434.172C527.311 434.172 539.998 429.581 550.039 421.88C560.079 414.18 567.611 403.37 571.195 390.83C573.536 382.599 568.764 374.014 560.533 371.675C552.301 369.324 543.742 374.095 541.4 382.327H541.389C539.692 388.308 536.051 393.544 531.189 397.264C526.304 400.983 520.345 403.166 513.708 403.166C507.037 403.166 501.043 400.95 496.147 397.184C491.273 393.419 487.633 388.105 485.97 382.067C483.686 373.813 475.161 368.974 466.906 371.234C458.662 373.519 453.812 382.056 456.084 390.3C459.59 402.974 467.122 413.92 477.197 421.711Z" fill="#BFBFBF"/>
<path d="M343.893 390.83C346.246 382.608 341.485 374.027 333.253 371.675C325.021 369.324 316.45 374.084 314.099 382.316C312.38 388.309 308.75 393.544 303.888 397.266C299.003 400.984 293.044 403.167 286.407 403.167C279.747 403.167 273.732 400.952 268.846 397.186C263.961 393.42 260.33 388.106 258.669 382.069C256.385 373.814 247.86 368.975 239.605 371.236C231.35 373.52 226.511 382.058 228.783 390.302C232.289 402.977 239.808 413.922 249.896 421.714C259.958 429.516 272.724 434.175 286.407 434.175C300.021 434.175 312.697 429.584 322.725 421.883C332.778 414.18 340.319 403.37 343.893 390.83Z" fill="#BFBFBF"/>
<path d="M771.878 340.161C756.172 324.433 734.823 314.12 711.225 312.391C696.481 243.053 659.369 181.994 607.83 137.147C551.508 88.1625 477.784 58.4469 397.288 58.4469C316.913 58.4469 243.28 88.0719 187.003 136.909C135.159 181.9 97.8781 243.278 83.2172 312.966C61.8234 315.759 42.5734 325.675 28.0891 340.159C10.7766 357.473 0 381.603 0 408.039C0 434.431 10.7766 458.561 28.0875 475.872C45.3984 493.184 69.5281 503.948 95.9547 503.948C97.7766 503.948 99.5516 503.903 101.327 503.814C124.439 558.723 162.33 605.875 210.081 640.238C232.028 656.045 256.125 669.15 281.803 679.067C278.705 668.223 277.109 656.837 277.109 645.236C277.109 639.887 277.461 634.528 278.163 629.303C263.305 622.214 249.181 613.813 235.93 604.291C190.497 571.602 155.341 525.422 136.345 471.711L129.481 452.319L109.648 457.769C105.08 459.002 100.569 459.669 95.9547 459.669C81.6172 459.669 68.8234 453.912 59.4312 444.528C50.0469 435.131 44.2844 422.344 44.2844 408.039C44.2844 393.691 50.0453 380.891 59.4312 371.505C68.8219 362.12 81.6172 356.364 95.9547 356.364C96.8484 356.364 98.1703 356.455 100.038 356.58L120.628 358.173L123.681 337.82C133.687 271.298 167.43 212.545 216.006 170.391C228.15 159.863 241.211 150.377 255.05 142.053C256.248 149.563 258.092 156.595 260.669 163.052C264.752 173.308 270.472 182.195 277.256 189.783C289.141 203.092 304.009 212.466 319.547 220.144C342.862 231.597 368.055 239.536 389.223 249.43C399.806 254.338 409.339 259.673 417.153 265.825C424.978 272.011 431.083 278.863 435.437 287.208C437.778 291.719 442.447 294.478 447.536 294.364C452.625 294.241 457.159 291.267 459.284 286.641C482.25 236.889 490.539 197.742 490.539 166.997C490.573 146.011 486.603 129.038 481.052 115.673C517.439 127.23 550.581 146.067 578.783 170.561C627.405 212.861 661.055 271.75 670.972 338.43L674.263 360.389L696.22 357.03C699.137 356.578 701.705 356.363 704.056 356.363C718.394 356.363 731.148 362.119 740.58 371.503C749.977 380.889 755.675 393.689 755.731 408.038C755.675 422.342 749.975 435.131 740.58 444.527C731.148 453.911 718.395 459.667 704.056 459.667C698.108 459.667 692.444 458.592 686.948 456.705L665.961 449.298L658.656 470.284C639.886 524.356 604.766 570.898 559.253 603.838C547.347 612.466 534.728 620.177 521.486 626.825C522.414 632.886 522.855 639.003 522.855 645.234C522.855 656 521.486 666.538 518.83 676.68C542.53 666.945 564.795 654.495 585.205 639.705C632.719 605.297 670.441 558.223 693.428 503.327C696.878 503.722 700.461 503.948 704.058 503.948C730.483 503.948 754.58 493.184 771.88 475.872C789.202 458.561 800 434.431 800 408.039C800 381.603 789.202 357.473 771.878 340.161ZM346.312 203.138C327.056 195.02 310.152 185.952 298.697 173.863C292.931 167.802 288.406 161.028 285.184 152.831C282.527 146.013 280.831 138.052 280.311 128.667C297.691 120.536 316.053 114.125 335.198 109.738C335.289 124.778 338.783 148.319 353.742 176.609C360.425 189.297 369.403 202.888 381.298 217.134C369.414 212.342 357.506 207.877 346.312 203.138ZM447.933 244.75C410.561 214.695 389.292 187.038 377.239 164.206C364.134 139.353 361.781 120.142 361.759 109.016C361.759 107.522 361.805 106.211 361.873 105.025C373.473 103.544 385.278 102.73 397.289 102.73C413.559 102.73 429.48 104.188 444.95 106.867C446.555 108.72 448.228 110.847 449.878 113.345C456.878 123.953 463.922 140.608 463.978 166.998C463.989 186.934 459.794 212.536 447.933 244.75Z" fill="#BFBFBF"/>
<path d="M400 548.953C373.497 548.942 349.264 559.775 331.908 577.166C314.517 594.511 303.695 618.744 303.706 645.258C303.694 671.775 314.515 696.006 331.908 713.352C349.264 730.742 373.497 741.564 400 741.552C426.526 741.563 450.747 730.742 468.106 713.352C485.497 696.006 496.317 671.775 496.306 645.258C496.317 618.742 485.497 594.511 468.106 577.166C450.747 559.773 426.526 548.942 400 548.953ZM444.8 664.175C441.137 672.859 434.928 680.334 427.172 685.58C419.381 690.827 410.155 693.858 400 693.869C393.228 693.856 386.895 692.5 381.094 690.047C372.398 686.383 364.936 680.186 359.689 672.419C354.442 664.628 351.411 655.402 351.401 645.258C351.401 638.473 352.758 632.142 355.211 626.341C358.886 617.656 365.07 610.181 372.839 604.936C380.63 599.689 389.858 596.659 399.998 596.648C406.783 596.661 413.115 598.016 418.915 600.459C427.611 604.134 435.086 610.331 440.331 618.098C445.578 625.878 448.597 635.116 448.609 645.258C448.611 652.031 447.255 658.364 444.8 664.175Z" fill="#BFBFBF"/>
<path d="M400.013 491.195C334.611 491.195 281.557 522.9 281.557 562.036C281.557 573.728 286.307 584.764 294.708 594.5C299.796 586.088 306.005 578.206 313.127 571.072C336.285 547.881 367.154 535.081 399.968 535.081C432.907 535.081 463.73 547.881 486.922 571.13C494.057 578.208 500.207 586.089 505.308 594.502C513.708 584.766 518.458 573.73 518.458 562.038C518.457 522.9 465.449 491.195 400.013 491.195Z" fill="#BFBFBF"/>
</svg>
