<svg width="800" height="800" viewBox="0 0 800 800" fill="none" xmlns="http://www.w3.org/2000/svg">
<path d="M300 166.667H233.334C196.515 166.667 166.667 196.514 166.667 233.333V633.333C166.667 670.153 196.515 700 233.334 700H300M500 166.667H566.667C603.487 166.667 633.334 196.514 633.334 233.333V300" stroke="#BFBFBF" stroke-width="50" stroke-linecap="round" stroke-linejoin="round"/>
<path d="M496.734 677.81L423.844 692.387L438.42 619.5C439.714 613.047 442.884 607.12 447.537 602.467L583.334 466.667L650 400L716.23 466.23L649.564 532.897L513.767 668.693C509.114 673.347 503.187 676.52 496.734 677.81Z" stroke="#BFBFBF" stroke-width="50" stroke-linecap="round" stroke-linejoin="round"/>
<path d="M300 166.667C300 129.848 329.848 100 366.667 100H433.333C470.153 100 500 129.848 500 166.667V233.333H300V166.667Z" stroke="#BFBFBF" stroke-width="50" stroke-linecap="round" stroke-linejoin="round"/>
</svg>
