<svg width="800" height="800" viewBox="0 0 800 800" fill="none" xmlns="http://www.w3.org/2000/svg">
<rect x="194" y="223" width="390" height="398" fill="white"/>
<path fill-rule="evenodd" clip-rule="evenodd" d="M733.333 400C733.333 584.094 584.093 733.334 399.999 733.334C215.904 733.334 66.666 584.094 66.666 400C66.666 215.905 215.904 66.667 399.999 66.667C584.093 66.667 733.333 215.905 733.333 400ZM298.987 298.989C308.75 289.226 324.579 289.226 334.343 298.989L399.999 364.644L465.653 298.989C475.416 289.226 491.246 289.226 501.009 298.989C510.773 308.752 510.773 324.582 501.009 334.344L435.353 400L501.009 465.654C510.773 475.417 510.773 491.247 501.009 501.01C491.246 510.774 475.416 510.774 465.653 501.01L399.999 435.357L334.343 501.01C324.58 510.774 308.751 510.774 298.988 501.01C289.225 491.247 289.225 475.417 298.988 465.657L364.643 400L298.987 334.344C289.224 324.581 289.224 308.752 298.987 298.989Z" fill="#FFC6D2"/>
</svg>
