<svg width="800" height="800" viewBox="0 0 800 800" fill="none" xmlns="http://www.w3.org/2000/svg">
<path d="M558 353C519 342 469 335 415 334V310C415 298 406 289 394 289C382 289 373 298 373 310V334C320 335 270 341 231 353C177 368 150 390 150 418V611C150 639 177 661 231 677C275 690 333 697 395 697C457 697 515 690 559 677C612 662 640 639 640 611V418C639 390 613 368 558 353ZM373 375V418C373 430 382 439 394 439C406 439 415 430 415 418V375C524 378 591 404 596 418C594 421 588 426 565 438C535 453 526 478 520 494C519 497 517 502 516 504C514 502 512 498 510 496C501 482 485 458 451 460C416 462 406 499 399 525C396 535 391 554 387 556C378 556 376 554 369 541C360 526 346 502 308 501C297 500 297 500 293 490C287 476 278 454 240 443C205 433 194 421 193 419C197 405 264 378 373 375ZM394 655C271 655 196 626 192 611V469C201 474 213 478 227 482C246 488 249 495 253 505C259 519 268 540 305 541C321 542 325 548 332 561C341 575 353 597 386 597C422 597 431 561 438 534C441 523 447 500 452 500C461 499 464 503 474 517C482 529 494 548 519 546C544 543 553 522 558 507C563 493 568 481 583 473C587 471 591 469 595 467V610C593 626 517 655 394 655ZM394 259C426 259 451 233 451 202C451 184 436 103 394 103C352 103 337 185 337 202C337 233 363 259 394 259ZM394 149C401 161 409 188 409 202C409 210 402 217 394 217C386 217 379 210 379 202C379 188 387 162 394 149Z" fill="#BFBFBF"/>
</svg>
