<svg width="800" height="800" viewBox="0 0 800 800" fill="none" xmlns="http://www.w3.org/2000/svg">
<path d="M702.223 166.667C721.953 198.602 733.333 236.201 733.333 276.448C733.333 392.307 639.026 486.23 522.69 486.23C501.463 486.23 453.13 481.35 429.616 461.837L400.223 491.11C375.733 515.5 395.326 515.5 405.123 535.017C405.123 535.017 429.616 569.167 405.123 603.317C390.426 622.83 349.277 650.15 302.251 603.317L292.454 613.073C292.454 613.073 321.846 647.223 297.352 681.373C282.656 700.89 243.467 720.403 209.177 686.253C207.544 687.88 198.4 696.987 174.887 720.403C151.373 743.82 122.635 730.16 111.205 720.403L81.8135 691.13C54.3808 663.81 70.3832 634.213 81.8135 622.83L336.543 369.143C336.543 369.143 312.05 330.113 312.05 276.448C312.05 160.589 406.357 66.6667 522.69 66.6667C549.983 66.6667 576.066 71.8364 600 81.2461" stroke="#BFBFBF" stroke-width="50" stroke-linecap="round" stroke-linejoin="round"/>
<path d="M596.17 276.451C596.17 316.867 563.273 349.63 522.69 349.63C482.11 349.63 449.21 316.867 449.21 276.451C449.21 236.035 482.11 203.271 522.69 203.271C563.273 203.271 596.17 236.035 596.17 276.451Z" stroke="#BFBFBF" stroke-width="50"/>
</svg>
